<svg width="20" height="20" viewBox="0 0 20 20" fill="none" xmlns="http://www.w3.org/2000/svg">
<path d="M10 20C19.9229 20 20 15.5229 20 10C20 4.47708 19.9229 0 10 0C0.0770831 0 0 4.47708 0 10C0 15.5229 0.0770831 20 10 20Z" fill="#5766EC"/>
<path fill-rule="evenodd" clip-rule="evenodd" d="M12.6895 4.58326H7.55113C6.83253 4.58326 6.24998 5.15387 6.24998 5.85777V14.7793C6.24998 15.1313 6.54126 15.4166 6.90056 15.4166C7.2198 15.4166 7.51944 15.2632 7.70527 15.0047L13.7534 6.59156C14.3604 5.74717 13.7438 4.58326 12.6895 4.58326ZM12.8632 15.4166C13.9151 15.4166 14.5322 14.2575 13.9302 13.4127C13.266 12.4805 12.8326 11.7881 12.1875 10.8617C12.0536 10.6694 11.5799 10.67 11.4453 10.8617L8.61824 14.895C8.46312 15.116 8.57693 15.4166 8.84764 15.4166L12.8632 15.4166Z" fill="white"/>
</svg>
