<svg width="20" height="15" viewBox="0 0 20 15" fill="none" xmlns="http://www.w3.org/2000/svg">
<path d="M12.4348 4.17547H18.5294V1.82254C18.5294 1.24418 18.0627 0.775391 17.4871 0.775391H1.04223C0.466589 0.775391 0 1.24427 0 1.82254V13.9528C0 14.5312 0.466589 15 1.04223 15H17.4871C18.0628 15 18.5294 14.5311 18.5294 13.9528V11.5999H12.4348C11.1793 11.5999 10.1578 10.5736 10.1578 9.31213V6.46322C10.1577 5.20174 11.1792 4.17547 12.4348 4.17547Z" fill="#5766EC"/>
<path d="M19.1466 5.60547H12.4359C11.9643 5.60547 11.582 5.98952 11.582 6.46334V9.31226C11.582 9.78608 11.9643 10.1701 12.4359 10.1701H19.1466C19.6181 10.1701 20.0004 9.78608 20.0004 9.31226V6.46334C20.0004 5.98952 19.6181 5.60547 19.1466 5.60547ZM13.8484 8.89477C13.2949 8.89477 12.8462 8.44395 12.8462 7.8878C12.8462 7.33166 13.2949 6.88083 13.8484 6.88083C14.402 6.88083 14.8507 7.33166 14.8507 7.8878C14.8507 8.44395 14.402 8.89477 13.8484 8.89477Z" fill="#5766EC"/>
</svg>
